<?xml version="1.0" standalone="no"?>
<!DOCTYPE svg PUBLIC "-//W3C//DTD SVG 20010904//EN"
 "http://www.w3.org/TR/2001/REC-SVG-20010904/DTD/svg10.dtd">
<svg version="1.0" xmlns="http://www.w3.org/2000/svg"
 width="792.000000pt" height="480.000000pt" viewBox="0 0 792.000000 480.000000"
 preserveAspectRatio="xMidYMid meet">

<g transform="translate(0.000000,480.000000) scale(0.100000,-0.100000)"
fill="#000000" stroke="none">
<path d="M3795 4566 c-106 -27 -211 -99 -267 -184 -14 -20 -137 -230 -273
-467 -136 -236 -287 -497 -335 -580 -48 -82 -183 -316 -300 -520 -117 -203
-293 -507 -390 -675 -97 -168 -223 -386 -280 -485 -57 -99 -178 -308 -269
-465 -91 -157 -176 -312 -189 -345 -30 -73 -40 -211 -23 -297 28 -132 112
-247 218 -300 l65 -32 2067 3 c1370 2 2083 6 2116 13 139 28 270 129 332 255
31 63 37 87 41 159 6 122 -14 185 -112 356 -103 178 -417 724 -483 838 -90
154 -237 410 -448 775 -114 198 -258 448 -320 555 -62 107 -244 422 -404 700
-160 278 -309 526 -331 552 -48 56 -115 104 -180 129 -64 24 -173 31 -235 15z
m170 -328 c19 -18 84 -121 146 -228 168 -294 314 -548 541 -940 308 -533 308
-533 410 -710 52 -91 137 -237 188 -325 51 -88 143 -248 205 -355 116 -201
227 -394 323 -560 199 -344 232 -405 232 -438 0 -65 -57 -132 -128 -152 -42
-11 -4055 -16 -4073 -4 -21 13 -49 89 -49 134 0 25 9 63 19 85 10 22 143 256
296 520 153 264 295 509 315 545 20 36 102 178 182 315 162 279 234 404 563
975 537 933 648 1121 677 1145 45 38 108 35 153 -7z"/>
<path d="M3575 2874 c-71 -37 -101 -92 -92 -171 13 -116 138 -178 246 -123 90
45 114 175 47 253 -47 55 -139 74 -201 41z"/>
<path d="M4325 2778 c-3 -7 -4 -141 -2 -298 2 -261 3 -285 19 -284 11 1 22
-12 32 -37 9 -22 16 -42 16 -44 0 -3 -20 -5 -45 -5 -25 0 -45 -4 -45 -10 0 -6
-43 -10 -110 -10 -99 0 -111 -2 -130 -22 -40 -43 -11 -108 50 -108 l30 0 0
-353 c0 -371 1 -377 45 -377 44 0 45 6 45 377 l0 353 115 0 115 0 1 -332 c1
-183 1 -336 0 -340 0 -4 4 -19 9 -33 7 -19 17 -25 40 -25 49 0 48 -10 49 398
l1 332 23 0 c32 0 57 30 57 67 0 51 -25 63 -127 63 l-90 0 -17 58 c-15 47 -16
66 -7 98 14 51 15 451 1 491 -6 17 -22 35 -36 42 -31 14 -34 14 -39 -1z"/>
<path d="M3460 2512 c-19 -10 -44 -33 -56 -49 -11 -17 -53 -139 -93 -271 -79
-260 -80 -277 -30 -314 36 -27 124 -38 303 -36 l161 1 5 -216 c5 -211 5 -216
29 -241 33 -36 92 -36 127 -1 l25 25 -3 305 -3 305 -33 32 -32 33 -138 2 c-75
1 -142 2 -149 2 -8 1 -7 14 3 49 8 26 19 65 25 86 l11 39 53 -53 53 -52 142 4
c126 3 144 6 156 23 18 24 18 36 0 61 -13 17 -26 19 -138 17 l-124 -2 -55 55
c-39 39 -54 63 -55 84 -5 100 -100 158 -184 112z"/>
<path d="M2971 2354 c-12 -15 -21 -29 -21 -33 0 -28 61 -357 77 -416 30 -114
83 -194 161 -245 l23 -15 -56 -120 c-119 -251 -117 -247 -106 -272 8 -17 19
-23 41 -23 29 0 34 5 60 63 15 34 55 120 89 191 l61 128 105 -4 c58 -2 107 -7
110 -10 5 -5 28 -82 91 -306 8 -29 21 -55 29 -59 24 -9 62 5 67 25 3 10 -14
87 -38 172 -24 85 -43 161 -44 168 0 6 8 12 18 12 27 0 52 32 59 73 4 29 1 40
-20 61 -26 26 -28 26 -184 26 -191 0 -221 7 -264 61 -42 53 -53 87 -89 276
-51 264 -55 273 -115 273 -24 0 -39 -7 -54 -26z"/>
<path d="M2100 928 c1 -7 13 -60 29 -118 l27 -105 41 -3 41 -3 8 68 8 68 9
-45 c5 -25 11 -55 13 -67 4 -19 11 -23 42 -23 l37 0 29 103 c16 56 31 110 34
120 4 14 -2 17 -36 17 l-40 0 -7 -55 c-8 -70 -21 -78 -30 -19 -10 68 -14 74
-50 74 -32 0 -33 -1 -46 -67 l-13 -68 -8 45 c-15 90 -15 90 -53 90 -22 0 -35
-5 -35 -12z"/>
<path d="M2495 931 c-43 -19 -60 -50 -60 -112 0 -51 4 -62 28 -86 24 -24 35
-28 87 -28 52 0 63 4 87 28 24 24 28 35 28 87 0 51 -4 63 -27 86 -28 29 -104
42 -143 25z m84 -65 c16 -20 17 -72 1 -91 -29 -34 -71 -9 -72 44 -2 52 43 81
71 47z"/>
<path d="M2694 820 l0 -120 38 0 c38 0 38 0 38 40 0 36 3 40 25 40 26 0 45
-25 45 -59 0 -18 6 -21 39 -21 l40 0 -6 38 c-3 20 -12 43 -19 51 -11 13 -11
18 3 33 24 27 21 77 -6 100 -19 14 -41 18 -110 18 l-86 0 -1 -120z m141 50
c10 -16 -15 -40 -41 -40 -19 0 -24 5 -24 25 0 21 5 25 29 25 17 0 33 -5 36
-10z"/>
<path d="M2940 820 l0 -120 40 0 40 0 0 40 c0 51 13 51 42 0 22 -38 26 -40 71
-40 36 0 46 3 41 13 -4 6 -25 38 -46 69 -21 31 -38 61 -38 65 0 5 16 24 35 43
19 19 35 38 35 42 0 4 -20 8 -44 8 -38 0 -48 -4 -66 -30 -12 -16 -25 -30 -29
-30 -4 0 -6 14 -3 30 4 29 3 30 -37 30 l-41 0 0 -120z"/>
<path d="M3292 820 l-1 -120 40 0 39 0 0 120 0 120 -39 0 -38 0 -1 -120z"/>
<path d="M3410 820 l0 -120 35 0 35 0 0 58 1 57 32 -57 c30 -54 34 -58 70 -58
l37 0 0 120 0 120 -35 0 -35 0 0 -62 0 -63 -33 63 c-30 59 -33 62 -69 62 l-38
0 0 -120z"/>
<path d="M3764 927 c-2 -7 -3 -60 -2 -118 l3 -104 38 -3 c36 -3 37 -3 37 32 0
36 0 36 45 36 59 0 95 32 95 85 0 25 -8 44 -25 60 -22 22 -32 25 -105 25 -57
0 -82 -4 -86 -13z m135 -56 c23 -15 5 -41 -29 -41 -25 0 -30 4 -30 25 0 19 5
25 23 25 12 0 28 -4 36 -9z"/>
<path d="M3998 938 c0 -2 -2 -56 -3 -120 l-2 -118 39 0 c38 0 38 0 38 40 0 36
3 40 25 40 26 0 45 -25 45 -59 0 -18 6 -21 40 -21 39 0 39 0 34 33 -3 17 -11
42 -17 55 -8 17 -8 25 1 34 7 7 12 29 12 49 0 55 -25 69 -127 69 -46 0 -84 -1
-85 -2z m137 -68 c10 -16 -15 -40 -41 -40 -19 0 -24 5 -24 25 0 21 5 25 29 25
17 0 33 -5 36 -10z"/>
<path d="M4295 931 c-38 -17 -58 -50 -63 -105 -4 -48 -1 -56 26 -87 28 -32 35
-34 91 -34 53 0 64 4 88 28 24 24 28 35 28 87 0 51 -4 63 -27 86 -28 29 -104
42 -143 25z m85 -66 c16 -19 15 -71 -1 -91 -28 -33 -72 -5 -72 46 0 52 45 79
73 45z"/>
<path d="M4555 931 c-38 -16 -58 -50 -63 -106 -4 -52 -3 -56 31 -90 27 -27 43
-35 72 -35 20 0 45 5 56 10 13 7 19 7 19 0 0 -5 11 -10 25 -10 24 0 25 2 25
65 l0 65 -50 0 c-46 0 -50 -2 -50 -24 0 -15 7 -26 18 -29 13 -3 10 -6 -11 -12
-17 -4 -33 -3 -42 5 -18 15 -20 81 -3 98 17 17 47 15 54 -3 9 -23 74 -20 74 3
-1 54 -89 90 -155 63z"/>
<path d="M4743 823 l2 -118 38 -3 37 -3 0 40 c0 36 3 41 23 41 31 0 47 -18 47
-52 0 -26 3 -28 39 -28 l40 0 -6 38 c-3 20 -9 44 -14 53 -4 8 -3 22 2 30 5 7
9 31 9 51 0 55 -25 68 -131 68 l-87 0 1 -117z m142 47 c10 -16 -15 -40 -41
-40 -19 0 -24 5 -24 25 0 21 5 25 29 25 17 0 33 -5 36 -10z"/>
<path d="M4993 820 l0 -120 103 0 104 0 0 30 0 30 -65 0 c-51 0 -65 3 -65 15
0 12 13 15 55 15 54 0 55 0 55 30 0 30 -1 30 -55 30 -42 0 -55 3 -55 15 0 12
13 15 60 15 l60 0 0 30 0 30 -99 0 -99 0 1 -120z"/>
<path d="M5245 915 c-42 -41 -28 -94 28 -110 45 -13 77 -28 77 -36 0 -15 -57
-10 -63 5 -7 17 -72 16 -71 -2 1 -7 2 -19 3 -27 2 -22 55 -45 105 -45 33 0 52
6 75 26 17 14 31 22 31 16 0 -22 67 -45 115 -40 113 13 121 119 11 147 -51 13
-70 31 -32 31 14 0 26 -4 26 -10 0 -5 16 -10 35 -10 27 0 35 4 35 18 0 37 -25
55 -83 60 -50 4 -58 2 -81 -21 -29 -29 -34 -68 -11 -90 8 -9 37 -23 65 -32 51
-17 62 -28 35 -39 -19 -7 -42 2 -48 18 -3 6 -19 13 -37 14 -20 2 -40 11 -51
26 -10 13 -39 29 -64 36 -52 15 -68 30 -31 30 14 0 26 -4 26 -10 0 -5 16 -10
35 -10 27 0 35 4 35 18 -1 60 -116 87 -165 37z"/>
</g>
</svg>
